<mxfile host="app.diagrams.net" agent="Mozilla/5.0 (Windows NT 10.0; Win64; x64) AppleWebKit/537.36 (KHTML, like Gecko) Chrome/131.0.0.0 Safari/537.36 Edg/131.0.0.0" version="25.0.3">
  <diagram name="Page-1" id="QepWf1zCcWGGVgCshd_q">
    <mxGraphModel dx="2049" dy="1181" grid="1" gridSize="10" guides="1" tooltips="1" connect="1" arrows="1" fold="1" page="1" pageScale="1" pageWidth="850" pageHeight="1100" math="0" shadow="0">
      <root>
        <mxCell id="0" />
        <mxCell id="1" parent="0" />
        <mxCell id="Vu5O31isSTV-UJfVgTjE-23" value="" style="edgeStyle=orthogonalEdgeStyle;rounded=0;orthogonalLoop=1;jettySize=auto;html=1;" parent="1" source="Vu5O31isSTV-UJfVgTjE-2" target="Vu5O31isSTV-UJfVgTjE-21" edge="1">
          <mxGeometry relative="1" as="geometry" />
        </mxCell>
        <mxCell id="Vu5O31isSTV-UJfVgTjE-2" value="Start" style="ellipse;whiteSpace=wrap;html=1;" parent="1" vertex="1">
          <mxGeometry x="330" y="50" width="120" height="80" as="geometry" />
        </mxCell>
        <mxCell id="Vu5O31isSTV-UJfVgTjE-3" value="" style="edgeStyle=orthogonalEdgeStyle;rounded=0;orthogonalLoop=1;jettySize=auto;html=1;" parent="1" source="Vu5O31isSTV-UJfVgTjE-4" target="Vu5O31isSTV-UJfVgTjE-7" edge="1">
          <mxGeometry relative="1" as="geometry" />
        </mxCell>
        <mxCell id="Vu5O31isSTV-UJfVgTjE-4" value="Input &lt;b&gt;char &lt;/b&gt;from keyboard" style="rounded=0;whiteSpace=wrap;html=1;" parent="1" vertex="1">
          <mxGeometry x="330" y="280" width="120" height="60" as="geometry" />
        </mxCell>
        <mxCell id="Vu5O31isSTV-UJfVgTjE-5" value="" style="edgeStyle=orthogonalEdgeStyle;rounded=0;orthogonalLoop=1;jettySize=auto;html=1;" parent="1" source="Vu5O31isSTV-UJfVgTjE-7" target="Vu5O31isSTV-UJfVgTjE-9" edge="1">
          <mxGeometry relative="1" as="geometry" />
        </mxCell>
        <mxCell id="Vu5O31isSTV-UJfVgTjE-6" value="" style="edgeStyle=orthogonalEdgeStyle;rounded=0;orthogonalLoop=1;jettySize=auto;html=1;" parent="1" source="Vu5O31isSTV-UJfVgTjE-7" target="Vu5O31isSTV-UJfVgTjE-11" edge="1">
          <mxGeometry relative="1" as="geometry" />
        </mxCell>
        <mxCell id="Vu5O31isSTV-UJfVgTjE-7" value="if % press" style="rhombus;whiteSpace=wrap;html=1;rounded=0;" parent="1" vertex="1">
          <mxGeometry x="310" y="390" width="160" height="80" as="geometry" />
        </mxCell>
        <mxCell id="Vu5O31isSTV-UJfVgTjE-8" value="" style="edgeStyle=orthogonalEdgeStyle;rounded=0;orthogonalLoop=1;jettySize=auto;html=1;" parent="1" source="Vu5O31isSTV-UJfVgTjE-9" target="Vu5O31isSTV-UJfVgTjE-15" edge="1">
          <mxGeometry relative="1" as="geometry" />
        </mxCell>
        <mxCell id="Vu5O31isSTV-UJfVgTjE-17" value="" style="edgeStyle=orthogonalEdgeStyle;rounded=0;orthogonalLoop=1;jettySize=auto;html=1;" parent="1" source="Vu5O31isSTV-UJfVgTjE-9" target="Vu5O31isSTV-UJfVgTjE-16" edge="1">
          <mxGeometry relative="1" as="geometry" />
        </mxCell>
        <mxCell id="Vu5O31isSTV-UJfVgTjE-9" value="if backspace press" style="rhombus;whiteSpace=wrap;html=1;rounded=0;" parent="1" vertex="1">
          <mxGeometry x="310" y="530" width="160" height="80" as="geometry" />
        </mxCell>
        <mxCell id="Vu5O31isSTV-UJfVgTjE-10" style="edgeStyle=orthogonalEdgeStyle;rounded=0;orthogonalLoop=1;jettySize=auto;html=1;entryX=1;entryY=0.5;entryDx=0;entryDy=0;exitX=1;exitY=0.5;exitDx=0;exitDy=0;" parent="1" source="Vu5O31isSTV-UJfVgTjE-11" target="Vu5O31isSTV-UJfVgTjE-4" edge="1">
          <mxGeometry relative="1" as="geometry">
            <Array as="points">
              <mxPoint x="760" y="430" />
              <mxPoint x="760" y="310" />
            </Array>
          </mxGeometry>
        </mxCell>
        <mxCell id="Vu5O31isSTV-UJfVgTjE-11" value="Process &lt;b&gt;expression &lt;/b&gt;with %" style="whiteSpace=wrap;html=1;rounded=0;" parent="1" vertex="1">
          <mxGeometry x="570" y="400" width="120" height="60" as="geometry" />
        </mxCell>
        <mxCell id="Vu5O31isSTV-UJfVgTjE-12" value="No" style="text;html=1;align=center;verticalAlign=middle;whiteSpace=wrap;rounded=0;" parent="1" vertex="1">
          <mxGeometry x="332" y="470" width="60" height="30" as="geometry" />
        </mxCell>
        <mxCell id="Vu5O31isSTV-UJfVgTjE-13" value="Yes" style="text;html=1;align=center;verticalAlign=middle;whiteSpace=wrap;rounded=0;" parent="1" vertex="1">
          <mxGeometry x="470" y="400" width="60" height="30" as="geometry" />
        </mxCell>
        <mxCell id="Vu5O31isSTV-UJfVgTjE-14" style="edgeStyle=orthogonalEdgeStyle;rounded=0;orthogonalLoop=1;jettySize=auto;html=1;entryX=1;entryY=0.5;entryDx=0;entryDy=0;" parent="1" source="Vu5O31isSTV-UJfVgTjE-15" target="Vu5O31isSTV-UJfVgTjE-4" edge="1">
          <mxGeometry relative="1" as="geometry">
            <Array as="points">
              <mxPoint x="760" y="570" />
              <mxPoint x="760" y="310" />
            </Array>
          </mxGeometry>
        </mxCell>
        <mxCell id="Vu5O31isSTV-UJfVgTjE-15" value="Delete last character" style="whiteSpace=wrap;html=1;rounded=0;" parent="1" vertex="1">
          <mxGeometry x="560" y="540" width="120" height="60" as="geometry" />
        </mxCell>
        <mxCell id="Vu5O31isSTV-UJfVgTjE-18" style="edgeStyle=orthogonalEdgeStyle;rounded=0;orthogonalLoop=1;jettySize=auto;html=1;entryX=1;entryY=0.5;entryDx=0;entryDy=0;exitX=1;exitY=0.5;exitDx=0;exitDy=0;" parent="1" source="Vu5O31isSTV-UJfVgTjE-19" target="Vu5O31isSTV-UJfVgTjE-4" edge="1">
          <mxGeometry relative="1" as="geometry">
            <mxPoint x="670" y="790" as="sourcePoint" />
            <Array as="points">
              <mxPoint x="760" y="710" />
              <mxPoint x="760" y="310" />
            </Array>
          </mxGeometry>
        </mxCell>
        <mxCell id="Vu5O31isSTV-UJfVgTjE-20" value="" style="edgeStyle=orthogonalEdgeStyle;rounded=0;orthogonalLoop=1;jettySize=auto;html=1;" parent="1" source="Vu5O31isSTV-UJfVgTjE-16" target="Vu5O31isSTV-UJfVgTjE-19" edge="1">
          <mxGeometry relative="1" as="geometry" />
        </mxCell>
        <mxCell id="Vu5O31isSTV-UJfVgTjE-25" value="" style="edgeStyle=orthogonalEdgeStyle;rounded=0;orthogonalLoop=1;jettySize=auto;html=1;" parent="1" source="Vu5O31isSTV-UJfVgTjE-16" target="Vu5O31isSTV-UJfVgTjE-24" edge="1">
          <mxGeometry relative="1" as="geometry" />
        </mxCell>
        <mxCell id="Vu5O31isSTV-UJfVgTjE-16" value="if delete press" style="rhombus;whiteSpace=wrap;html=1;rounded=0;" parent="1" vertex="1">
          <mxGeometry x="310" y="670" width="160" height="80" as="geometry" />
        </mxCell>
        <mxCell id="Vu5O31isSTV-UJfVgTjE-19" value="Delete all character in expression" style="whiteSpace=wrap;html=1;rounded=0;" parent="1" vertex="1">
          <mxGeometry x="560" y="680" width="120" height="60" as="geometry" />
        </mxCell>
        <mxCell id="Vu5O31isSTV-UJfVgTjE-22" value="" style="edgeStyle=orthogonalEdgeStyle;rounded=0;orthogonalLoop=1;jettySize=auto;html=1;" parent="1" source="Vu5O31isSTV-UJfVgTjE-21" target="Vu5O31isSTV-UJfVgTjE-4" edge="1">
          <mxGeometry relative="1" as="geometry" />
        </mxCell>
        <mxCell id="Vu5O31isSTV-UJfVgTjE-21" value="&lt;b&gt;expression = &quot;&quot;&lt;/b&gt;" style="rounded=0;whiteSpace=wrap;html=1;" parent="1" vertex="1">
          <mxGeometry x="330" y="180" width="120" height="60" as="geometry" />
        </mxCell>
        <mxCell id="Vu5O31isSTV-UJfVgTjE-26" style="edgeStyle=orthogonalEdgeStyle;rounded=0;orthogonalLoop=1;jettySize=auto;html=1;entryX=1;entryY=0.5;entryDx=0;entryDy=0;exitX=1;exitY=0.5;exitDx=0;exitDy=0;" parent="1" source="Vu5O31isSTV-UJfVgTjE-27" target="Vu5O31isSTV-UJfVgTjE-4" edge="1">
          <mxGeometry relative="1" as="geometry">
            <mxPoint x="480" y="320" as="targetPoint" />
            <mxPoint x="690" y="950" as="sourcePoint" />
            <Array as="points">
              <mxPoint x="760" y="850" />
              <mxPoint x="760" y="310" />
            </Array>
          </mxGeometry>
        </mxCell>
        <mxCell id="Vu5O31isSTV-UJfVgTjE-28" value="" style="edgeStyle=orthogonalEdgeStyle;rounded=0;orthogonalLoop=1;jettySize=auto;html=1;" parent="1" source="Vu5O31isSTV-UJfVgTjE-24" target="Vu5O31isSTV-UJfVgTjE-27" edge="1">
          <mxGeometry relative="1" as="geometry" />
        </mxCell>
        <mxCell id="Vu5O31isSTV-UJfVgTjE-30" value="" style="edgeStyle=orthogonalEdgeStyle;rounded=0;orthogonalLoop=1;jettySize=auto;html=1;" parent="1" source="Vu5O31isSTV-UJfVgTjE-24" target="Vu5O31isSTV-UJfVgTjE-29" edge="1">
          <mxGeometry relative="1" as="geometry" />
        </mxCell>
        <mxCell id="Vu5O31isSTV-UJfVgTjE-24" value="if not (enter press)" style="rhombus;whiteSpace=wrap;html=1;rounded=0;" parent="1" vertex="1">
          <mxGeometry x="310" y="810" width="160" height="80" as="geometry" />
        </mxCell>
        <mxCell id="Vu5O31isSTV-UJfVgTjE-27" value="&lt;b&gt;expression += char&lt;/b&gt;" style="whiteSpace=wrap;html=1;rounded=0;" parent="1" vertex="1">
          <mxGeometry x="560" y="820" width="120" height="60" as="geometry" />
        </mxCell>
        <mxCell id="Vu5O31isSTV-UJfVgTjE-38" value="" style="edgeStyle=orthogonalEdgeStyle;rounded=0;orthogonalLoop=1;jettySize=auto;html=1;" parent="1" source="Vu5O31isSTV-UJfVgTjE-29" target="Vu5O31isSTV-UJfVgTjE-37" edge="1">
          <mxGeometry relative="1" as="geometry" />
        </mxCell>
        <mxCell id="Vu5O31isSTV-UJfVgTjE-29" value="Process expression with &lt;b&gt;Regex&lt;/b&gt;" style="whiteSpace=wrap;html=1;rounded=0;" parent="1" vertex="1">
          <mxGeometry x="330" y="940" width="120" height="60" as="geometry" />
        </mxCell>
        <mxCell id="Vu5O31isSTV-UJfVgTjE-31" value="No" style="text;html=1;align=center;verticalAlign=middle;whiteSpace=wrap;rounded=0;" parent="1" vertex="1">
          <mxGeometry x="326" y="610" width="60" height="30" as="geometry" />
        </mxCell>
        <mxCell id="Vu5O31isSTV-UJfVgTjE-32" value="Yes" style="text;html=1;align=center;verticalAlign=middle;whiteSpace=wrap;rounded=0;" parent="1" vertex="1">
          <mxGeometry x="464" y="535" width="60" height="30" as="geometry" />
        </mxCell>
        <mxCell id="Vu5O31isSTV-UJfVgTjE-33" value="No" style="text;html=1;align=center;verticalAlign=middle;whiteSpace=wrap;rounded=0;" parent="1" vertex="1">
          <mxGeometry x="326" y="750" width="60" height="30" as="geometry" />
        </mxCell>
        <mxCell id="Vu5O31isSTV-UJfVgTjE-34" value="Yes" style="text;html=1;align=center;verticalAlign=middle;whiteSpace=wrap;rounded=0;" parent="1" vertex="1">
          <mxGeometry x="464" y="680" width="60" height="30" as="geometry" />
        </mxCell>
        <mxCell id="Vu5O31isSTV-UJfVgTjE-35" value="No" style="text;html=1;align=center;verticalAlign=middle;whiteSpace=wrap;rounded=0;" parent="1" vertex="1">
          <mxGeometry x="332" y="890" width="60" height="30" as="geometry" />
        </mxCell>
        <mxCell id="Vu5O31isSTV-UJfVgTjE-36" value="Yes" style="text;html=1;align=center;verticalAlign=middle;whiteSpace=wrap;rounded=0;" parent="1" vertex="1">
          <mxGeometry x="470" y="820" width="60" height="30" as="geometry" />
        </mxCell>
        <mxCell id="Vu5O31isSTV-UJfVgTjE-40" value="" style="edgeStyle=orthogonalEdgeStyle;rounded=0;orthogonalLoop=1;jettySize=auto;html=1;" parent="1" source="Vu5O31isSTV-UJfVgTjE-37" target="Vu5O31isSTV-UJfVgTjE-39" edge="1">
          <mxGeometry relative="1" as="geometry" />
        </mxCell>
        <mxCell id="Vu5O31isSTV-UJfVgTjE-37" value="Calculate result by &lt;b&gt;Sympy&lt;/b&gt;" style="whiteSpace=wrap;html=1;rounded=0;" parent="1" vertex="1">
          <mxGeometry x="330" y="1050" width="120" height="60" as="geometry" />
        </mxCell>
        <mxCell id="Vu5O31isSTV-UJfVgTjE-41" style="edgeStyle=orthogonalEdgeStyle;rounded=0;orthogonalLoop=1;jettySize=auto;html=1;exitX=0;exitY=0.5;exitDx=0;exitDy=0;" parent="1" source="YPaPxHhFmxxWEeWd4rE0-20" edge="1" target="Vu5O31isSTV-UJfVgTjE-7">
          <mxGeometry relative="1" as="geometry">
            <mxPoint x="290" y="420" as="targetPoint" />
            <Array as="points">
              <mxPoint x="120" y="1530" />
              <mxPoint x="120" y="430" />
            </Array>
            <mxPoint x="159.97" y="1530" as="sourcePoint" />
          </mxGeometry>
        </mxCell>
        <mxCell id="YPaPxHhFmxxWEeWd4rE0-2" value="" style="edgeStyle=orthogonalEdgeStyle;rounded=0;orthogonalLoop=1;jettySize=auto;html=1;" edge="1" parent="1" source="Vu5O31isSTV-UJfVgTjE-39" target="YPaPxHhFmxxWEeWd4rE0-1">
          <mxGeometry relative="1" as="geometry" />
        </mxCell>
        <mxCell id="Vu5O31isSTV-UJfVgTjE-39" value="Display &lt;b&gt;result&lt;/b&gt;" style="whiteSpace=wrap;html=1;rounded=0;" parent="1" vertex="1">
          <mxGeometry x="330" y="1160" width="120" height="60" as="geometry" />
        </mxCell>
        <mxCell id="YPaPxHhFmxxWEeWd4rE0-16" value="" style="edgeStyle=orthogonalEdgeStyle;rounded=0;orthogonalLoop=1;jettySize=auto;html=1;" edge="1" parent="1" source="YPaPxHhFmxxWEeWd4rE0-1" target="YPaPxHhFmxxWEeWd4rE0-15">
          <mxGeometry relative="1" as="geometry" />
        </mxCell>
        <mxCell id="YPaPxHhFmxxWEeWd4rE0-1" value="Input &lt;b&gt;char &lt;/b&gt;from keyboard" style="rounded=0;whiteSpace=wrap;html=1;" vertex="1" parent="1">
          <mxGeometry x="330" y="1270" width="120" height="60" as="geometry" />
        </mxCell>
        <mxCell id="YPaPxHhFmxxWEeWd4rE0-7" value="" style="edgeStyle=orthogonalEdgeStyle;rounded=0;orthogonalLoop=1;jettySize=auto;html=1;" edge="1" parent="1" source="YPaPxHhFmxxWEeWd4rE0-5" target="YPaPxHhFmxxWEeWd4rE0-6">
          <mxGeometry relative="1" as="geometry" />
        </mxCell>
        <mxCell id="YPaPxHhFmxxWEeWd4rE0-21" value="" style="edgeStyle=orthogonalEdgeStyle;rounded=0;orthogonalLoop=1;jettySize=auto;html=1;" edge="1" parent="1" source="YPaPxHhFmxxWEeWd4rE0-5" target="YPaPxHhFmxxWEeWd4rE0-20">
          <mxGeometry relative="1" as="geometry" />
        </mxCell>
        <mxCell id="YPaPxHhFmxxWEeWd4rE0-5" value="if is not number" style="rhombus;whiteSpace=wrap;html=1;rounded=0;" vertex="1" parent="1">
          <mxGeometry x="310" y="1490" width="160" height="80" as="geometry" />
        </mxCell>
        <mxCell id="YPaPxHhFmxxWEeWd4rE0-9" style="edgeStyle=orthogonalEdgeStyle;rounded=0;orthogonalLoop=1;jettySize=auto;html=1;exitX=0;exitY=0.5;exitDx=0;exitDy=0;entryX=0;entryY=0.5;entryDx=0;entryDy=0;" edge="1" parent="1" source="YPaPxHhFmxxWEeWd4rE0-6" target="Vu5O31isSTV-UJfVgTjE-7">
          <mxGeometry relative="1" as="geometry">
            <mxPoint x="300" y="1650" as="sourcePoint" />
            <mxPoint x="270" y="430" as="targetPoint" />
            <Array as="points">
              <mxPoint x="120" y="1650" />
              <mxPoint x="120" y="430" />
            </Array>
          </mxGeometry>
        </mxCell>
        <mxCell id="YPaPxHhFmxxWEeWd4rE0-6" value="&lt;b&gt;expression = result + char&lt;/b&gt;" style="whiteSpace=wrap;html=1;rounded=0;" vertex="1" parent="1">
          <mxGeometry x="305" y="1620" width="170" height="60" as="geometry" />
        </mxCell>
        <mxCell id="YPaPxHhFmxxWEeWd4rE0-17" value="" style="edgeStyle=orthogonalEdgeStyle;rounded=0;orthogonalLoop=1;jettySize=auto;html=1;" edge="1" parent="1" source="YPaPxHhFmxxWEeWd4rE0-15" target="YPaPxHhFmxxWEeWd4rE0-5">
          <mxGeometry relative="1" as="geometry" />
        </mxCell>
        <mxCell id="YPaPxHhFmxxWEeWd4rE0-23" value="" style="edgeStyle=orthogonalEdgeStyle;rounded=0;orthogonalLoop=1;jettySize=auto;html=1;" edge="1" parent="1" source="YPaPxHhFmxxWEeWd4rE0-15" target="YPaPxHhFmxxWEeWd4rE0-22">
          <mxGeometry relative="1" as="geometry" />
        </mxCell>
        <mxCell id="YPaPxHhFmxxWEeWd4rE0-15" value="if &lt;b&gt;ERROR &lt;/b&gt;or &lt;b&gt;INFINITY&lt;/b&gt;" style="rhombus;whiteSpace=wrap;html=1;rounded=0;" vertex="1" parent="1">
          <mxGeometry x="310" y="1370" width="160" height="80" as="geometry" />
        </mxCell>
        <mxCell id="YPaPxHhFmxxWEeWd4rE0-20" value="&lt;b&gt;expression = char&lt;/b&gt;" style="whiteSpace=wrap;html=1;rounded=0;" vertex="1" parent="1">
          <mxGeometry x="150" y="1500" width="120" height="60" as="geometry" />
        </mxCell>
        <mxCell id="YPaPxHhFmxxWEeWd4rE0-24" style="edgeStyle=orthogonalEdgeStyle;rounded=0;orthogonalLoop=1;jettySize=auto;html=1;entryX=0;entryY=0.5;entryDx=0;entryDy=0;" edge="1" parent="1" source="YPaPxHhFmxxWEeWd4rE0-22" target="Vu5O31isSTV-UJfVgTjE-7">
          <mxGeometry relative="1" as="geometry">
            <mxPoint x="250" y="430" as="targetPoint" />
            <Array as="points">
              <mxPoint x="120" y="1410" />
              <mxPoint x="120" y="430" />
            </Array>
          </mxGeometry>
        </mxCell>
        <mxCell id="YPaPxHhFmxxWEeWd4rE0-22" value="&lt;b&gt;expression = char&lt;/b&gt;" style="whiteSpace=wrap;html=1;rounded=0;" vertex="1" parent="1">
          <mxGeometry x="150" y="1380" width="120" height="60" as="geometry" />
        </mxCell>
        <mxCell id="YPaPxHhFmxxWEeWd4rE0-25" value="Yes" style="text;html=1;align=center;verticalAlign=middle;whiteSpace=wrap;rounded=0;" vertex="1" parent="1">
          <mxGeometry x="272" y="1380" width="60" height="30" as="geometry" />
        </mxCell>
        <mxCell id="YPaPxHhFmxxWEeWd4rE0-26" value="Yes" style="text;html=1;align=center;verticalAlign=middle;whiteSpace=wrap;rounded=0;" vertex="1" parent="1">
          <mxGeometry x="270" y="1490" width="60" height="30" as="geometry" />
        </mxCell>
        <mxCell id="YPaPxHhFmxxWEeWd4rE0-27" value="No" style="text;html=1;align=center;verticalAlign=middle;whiteSpace=wrap;rounded=0;" vertex="1" parent="1">
          <mxGeometry x="332" y="1570" width="60" height="30" as="geometry" />
        </mxCell>
        <mxCell id="YPaPxHhFmxxWEeWd4rE0-28" value="No" style="text;html=1;align=center;verticalAlign=middle;whiteSpace=wrap;rounded=0;" vertex="1" parent="1">
          <mxGeometry x="330" y="1450" width="60" height="30" as="geometry" />
        </mxCell>
      </root>
    </mxGraphModel>
  </diagram>
</mxfile>
